<svg xmlns="http://www.w3.org/2000/svg" version="1.1" xmlns:xlink="http://www.w3.org/1999/xlink" xmlns:svgjs="http://svgjs.com/svgjs" width="1440" height="560" preserveAspectRatio="none" viewBox="0 0 1440 560"><g mask="url(&quot;#SvgjsMask1008&quot;)" fill="none"><path d="M1694.13 437.6C1536.33 432.93 1427 206.74 1110.37 196.8 793.74 186.86 685.45-49.65 526.61-54.94" stroke="rgba(45, 160, 135, 0.58)" stroke-width="2"></path><path d="M1445.07 410.98C1332.98 410.76 1223.64 340.98 1002.21 340.98 780.78 340.98 797.6 417.39 559.35 410.98 321.1 404.57 266.15 20.31 116.49-11.72" stroke="rgba(45, 160, 135, 0.58)" stroke-width="2"></path><path d="M1457.23 141.34C1258.37 143.47 985.07 360.93 692.31 359.74 399.55 358.55 451.03-48.04 309.85-93" stroke="rgba(45, 160, 135, 0.58)" stroke-width="2"></path><path d="M1525.18 166.1C1424.13 165.83 1326.13 96.1 1127.08 96.1 928.02 96.1 931.91 166.86 728.97 166.1 526.04 165.34 445.3-54.05 330.87-61.94" stroke="rgba(45, 160, 135, 0.58)" stroke-width="2"></path><path d="M1718.61 253.74C1581.89 254.92 1466.05 397.2 1189.93 393.74 913.8 390.28 833.67-35.21 661.24-65.78" stroke="rgba(45, 160, 135, 0.58)" stroke-width="2"></path></g><defs><mask id="SvgjsMask1008"><rect width="1440" height="560" fill="#ffffff"></rect></mask></defs></svg>